<?xml version="1.0" encoding="UTF-8" standalone="no"?>
<!-- Created with Inkscape (http://www.inkscape.org/) -->

<svg
   xmlns:dc="http://purl.org/dc/elements/1.1/"
   xmlns:cc="http://creativecommons.org/ns#"
   xmlns:rdf="http://www.w3.org/1999/02/22-rdf-syntax-ns#"
   xmlns:svg="http://www.w3.org/2000/svg"
   xmlns="http://www.w3.org/2000/svg"
   xmlns:sodipodi="http://sodipodi.sourceforge.net/DTD/sodipodi-0.dtd"
   xmlns:inkscape="http://www.inkscape.org/namespaces/inkscape"
   width="744.09448819"
   height="1052.3622047"
   id="svg2"
   version="1.1"
   inkscape:version="0.48.4 r9939"
   sodipodi:docname="New document 1">
  <defs
     id="defs4" />
  <sodipodi:namedview
     id="base"
     pagecolor="#ffffff"
     bordercolor="#666666"
     borderopacity="1.0"
     inkscape:pageopacity="0.0"
     inkscape:pageshadow="2"
     inkscape:zoom="0.35"
     inkscape:cx="375"
     inkscape:cy="520"
     inkscape:document-units="px"
     inkscape:current-layer="layer1"
     showgrid="false"
     inkscape:window-width="1920"
     inkscape:window-height="1030"
     inkscape:window-x="0"
     inkscape:window-y="23"
     inkscape:window-maximized="1" />
  <metadata
     id="metadata7">
    <rdf:RDF>
      <cc:Work
         rdf:about="">
        <dc:format>image/svg+xml</dc:format>
        <dc:type
           rdf:resource="http://purl.org/dc/dcmitype/StillImage" />
        <dc:title></dc:title>
      </cc:Work>
    </rdf:RDF>
  </metadata>
  <g
     inkscape:label="Layer 1"
     inkscape:groupmode="layer"
     id="layer1">
    <path
       style="fill:#000000;fill-opacity:1;fill-rule:nonzero;stroke:none"
       id="path2985"
       d="m 39.365301,126.68716 c 61.876479,52.66074 126.229759,102.30331 189.205569,153.61516 66.69473,54.34197 77.10175,64.02207 142.90452,120.51535 115.4699,98.24781 224.54258,203.59342 330.06842,312.35484 21.41529,23.31479 43.36815,46.33203 62.49124,71.62991 6.4032,8.47077 13.91545,19.50688 18.82999,29.13669 2.09149,4.09817 3.64812,8.44798 5.47218,12.67197 5.62294,15.51509 8.16619,31.79276 8.43539,48.22886 -0.21099,10.03014 -0.28569,20.07537 -0.97468,30.08576 -0.94012,5.09463 -1.12832,8.31109 -3.84078,13.01872 -7.43768,12.90852 -21.23275,21.65645 -33.8718,28.59248 -19.08542,10.47364 -38.56736,20.20791 -57.85103,30.31187 -10.10151,3.11027 -20.0512,6.76499 -30.30453,9.33081 -26.89914,6.73129 -54.39414,10.51309 -81.91541,13.50039 -50.63396,5.49603 -101.39229,7.40083 -152.26158,8.86323 -38.69082,0.1086 -77.43931,-0.8738 -115.96891,-4.6204 -8.95863,-0.8711 -30.89458,-3.6182 -40.99684,-5.62355 -4.16533,-0.82684 -8.23163,-2.09163 -12.34745,-3.13744 -2.85037,-1.51818 -6.05559,-2.5047 -8.55112,-4.55454 -9.84566,-8.0873 -11.08197,-23.87367 -12.2526,-35.38816 -1.793,-17.63622 -1.67268,-34.96527 -2.01931,-52.70693 -0.9723,-48.57535 1.8264,-97.77846 12.52408,-145.33569 4.33089,-19.25322 9.88656,-38.2511 16.28884,-56.91803 17.63097,-51.40611 26.56234,-64.44323 51.39982,-112.70924 43.5929,-72.66463 101.89143,-134.52779 170.55719,-184.01066 41.18078,-29.67625 76.22486,-46.87915 122.01437,-72.35241 45.33089,-22.29709 93.63366,-37.38414 143.40306,-45.67975 18.58893,-3.09842 27.98305,-3.73343 46.07896,-5.48666 17.94396,-1.31881 35.97967,-2.00649 53.94735,-0.79493 0.83775,1.33388 3.24323,-0.59859 4.26422,0.39926 2.73083,2.66894 2.82206,6.87138 2.92216,10.32049 0.58001,19.98362 -0.95308,21.25474 -4.44819,45.07128 -4.5053,14.58475 -8.134,29.46973 -13.5159,43.75426 -36.67501,97.34195 -96.17826,184.17812 -159.25556,266.06926 -18.49593,24.01264 -38.07111,47.1743 -57.10666,70.76145 -47.78346,56.47963 -97.9628,111.05383 -152.27811,161.34457 -21.92786,20.3031 -47.42286,42.20426 -71.95623,59.75362 -9.47803,6.77988 -19.55274,12.68423 -29.3291,19.02634 -42.60107,23.2833 -50.05907,31.39104 -87.91776,42.94874 -30.5716,9.33302 -62.29297,12.48542 -94.00637,14.73462 -20.96192,1.1477 -41.96092,1.1393 -62.93655,0.4825 -5.25177,-0.7412 -10.77225,0.3268 -16.00064,-0.4591 -5.08125,-0.7639 -6.5102,-1.9733 -11.16363,-4.3052 -2.00617,-2.238 -4.49523,-4.1231 -6.01851,-6.714 -6.046661,-10.28485 -9.847258,-26.00968 -12.388725,-36.80745 -7.216819,-30.66162 -11.56177,-61.91601 -16.15023,-93.04325 -4.549422,-32.96679 -8.603147,-66.01372 -11.154693,-99.19985 -0.589718,-6.98201 -0.658189,-13.97387 -0.428544,-20.96953 0.06489,-11.9474 0.09464,-23.79361 2.517662,-35.53003 1.608295,-7.53602 4.862488,-14.54803 7.316059,-21.81534 0.709823,-2.95268 2.455178,-5.46022 3.697222,-8.15952 0.08208,-0.22477 0.164155,-0.44954 0.246232,-0.67431 0,0 38.583947,-18.40166 38.583947,-18.40166 l 0,0 c -0.0577,0.29596 -0.11536,0.59192 -0.17304,0.88789 -0.69572,3.05794 -2.48578,5.45331 -3.85814,8.27555 -2.42767,7.29915 -5.85882,14.21829 -7.89035,21.6486 -2.981124,11.36625 -3.093182,22.8843 -2.664624,34.58229 0.05272,6.99241 -0.368315,13.97701 -0.15926,20.97097 0.829921,33.57345 4.027674,67.04733 8.109924,100.36813 3.48069,24.69473 5.03315,38.40199 10.05844,62.98722 3.66307,17.92087 9.44343,47.19239 19.97102,63.14644 1.37554,2.08457 3.60101,3.46162 5.40152,5.19242 1.77226,0.68995 3.48115,1.57248 5.31678,2.06986 6.81048,1.84534 14.14188,0.23442 21.06248,1.30167 20.33081,1.10593 40.71389,1.33318 61.05592,0.31887 22.26657,-1.4997 44.37588,-3.33294 66.24614,-8.10245 25.96709,-5.66295 27.64205,-7.34699 52.9443,-16.80322 2.28188,-0.54193 -3.38813,3.24393 -5.0822,4.8659 10.11119,-6.36149 20.52344,-12.26786 30.33358,-19.08446 25.59012,-17.78136 51.85212,-39.73281 74.77774,-60.46922 55.6982,-50.37947 107.14948,-105.26109 155.84162,-162.389 19.05722,-23.54405 38.7013,-46.62493 57.17165,-70.63214 61.76349,-80.27831 120.12458,-166.19182 154.03551,-262.42725 4.86117,-13.79545 7.88091,-28.1722 11.82137,-42.25831 3.23438,-30.78185 3.56176,-19.65961 2.10546,-42.8309 -0.10762,-1.71231 1.26376,-4.78774 -0.41742,-5.1301 -1.3041,-0.26557 -2.67061,-0.14243 -3.97055,-0.41896 -17.19905,-1.39205 -34.48218,-1.17141 -51.69273,-0.002 -18.13136,1.57171 -26.05886,1.95619 -44.81312,5.01702 -48.80447,7.96524 -96.08559,22.92694 -140.46627,44.84071 -27.63398,12.48413 -23.65272,9.85169 -61.83926,36.93402 -68.955,48.90368 -127.57666,110.27091 -171.34026,182.73088 -24.84484,47.90067 -33.82013,60.8028 -51.2792,111.89165 -22.20526,64.97718 -30.13733,131.15624 -25.8603,199.50921 0.90511,17.39384 1.36847,34.11972 3.54313,51.34771 1.20531,9.54863 2.62148,24.97668 11.09108,31.6624 2.26378,1.78698 5.10888,2.67792 7.66332,4.01688 53.28915,14.72392 109.6315,14.19828 164.42575,15.4873 16.87807,-0.4826 33.76758,-0.66115 50.63422,-1.44781 30.19323,-1.4082 71.83278,-4.54598 102.00373,-8.19123 27.90091,-3.371 55.77716,-7.70198 82.94258,-15.09208 10.38952,-2.82637 20.43475,-6.7929 30.65212,-10.18935 -3.46722,2.88172 -14.81197,9.58064 -10.40167,8.64516 6.31029,-1.33849 11.26445,-6.32296 16.59311,-9.95844 9.91558,-6.7649 18.89584,-15.08236 20.90422,-27.32875 0.86805,-9.89171 0.62057,-19.84556 1.08713,-29.76372 0.19322,-16.05271 -1.37366,-32.04136 -6.64902,-47.3271 -1.66882,-4.12791 -3.0883,-8.36561 -5.00646,-12.38373 -4.55051,-9.5323 -11.6186,-20.72776 -17.55365,-29.21836 C 712.00545,779.3211 691.23313,755.656 670.74762,731.9175 629.31967,686.57725 587.42808,641.73031 543.80676,598.47008 500.23749,555.26146 462.9453,520.23441 417.05896,479.04093 393.6146,457.99425 369.70657,437.46986 346.03038,416.68432 321.95253,396.17236 298.10455,375.38746 273.79682,355.14844 219.50619,309.94516 189.45689,286.55756 133.8658,244.155 109.09686,225.2623 58.095817,187.03706 30.201878,166.97262 21.654227,160.82419 12.89644,154.9733 4.2437211,148.97364 c 0,0 35.1215799,-22.28648 35.1215799,-22.28648 z"
       inkscape:connector-curvature="0" />
  </g>
</svg>
