<?xml version="1.0" encoding="UTF-8" standalone="no"?>
<svg
   xmlns:dc="http://purl.org/dc/elements/1.1/"
   xmlns:cc="http://creativecommons.org/ns#"
   xmlns:rdf="http://www.w3.org/1999/02/22-rdf-syntax-ns#"
   xmlns:svg="http://www.w3.org/2000/svg"
   xmlns="http://www.w3.org/2000/svg"
   xmlns:sodipodi="http://sodipodi.sourceforge.net/DTD/sodipodi-0.dtd"
   xmlns:inkscape="http://www.inkscape.org/namespaces/inkscape"
   width="387.93579"
   height="62.182037"
   id="svg2"
   version="1.1"
   inkscape:version="0.48.4 r9939"
   sodipodi:docname="left-black-wave.svg">
  <defs
     id="defs17" />
  <sodipodi:namedview
     pagecolor="#ffffff"
     bordercolor="#666666"
     borderopacity="1"
     objecttolerance="10"
     gridtolerance="10"
     guidetolerance="10"
     inkscape:pageopacity="0"
     inkscape:pageshadow="2"
     inkscape:window-width="1920"
     inkscape:window-height="1029"
     id="namedview15"
     showgrid="false"
     fit-margin-top="0"
     fit-margin-left="0"
     fit-margin-right="0"
     fit-margin-bottom="0"
     inkscape:zoom="0.41875"
     inkscape:cx="-183.98817"
     inkscape:cy="27.789151"
     inkscape:window-x="0"
     inkscape:window-y="24"
     inkscape:window-maximized="1"
     inkscape:current-layer="svg2" />
  <title
     id="title4">black wave</title>
  <metadata
     id="metadata7">image/svg+xmlFlourish Eleven2006 SeptemberNathan EadyGalion Public LibraryOpen Clip Art Library<rdf:RDF>
  <cc:Work
     rdf:about="">
    <dc:format>image/svg+xml</dc:format>
    <dc:type
       rdf:resource="http://purl.org/dc/dcmitype/StillImage" />
    <dc:title>black wave</dc:title>
  </cc:Work>
</rdf:RDF>
</metadata>
  <g
     id="g7"
     style="fill:#2f3f76;fill-opacity:1;stroke:none"
     transform="translate(-121.89862,-205.60711)">
    <title
       id="title9">Layer 1</title>
    <text
       x="456"
       y="188"
       id="svg_1"
       font-size="24"
       xml:space="preserve"
       transform="matrix(25.553451,0,0,3.6363637,-11305.874,-429.72729)"
       style="font-size:24px;text-anchor:middle;fill:#2f3f76;fill-opacity:1;stroke:none;stroke-width:0;font-family:Arial" />
    <text
       stroke-linejoin="null"
       stroke-linecap="null"
       x="378"
       y="258"
       id="svg_2"
       font-size="24"
       xml:space="preserve"
       transform="matrix(14.285714,0,0,1,-5114.9999,0)"
       style="font-size:24px;text-anchor:middle;fill:#2f3f76;fill-opacity:1;stroke:none;stroke-width:0;stroke-dasharray:none;font-family:Arial" />
    <g
       transform="matrix(0.99996749,-0.00806351,0.00806351,0.99996749,-1.9388159,2.5593863)"
       externalResourcesRequired="false"
       id="layer1"
       style="fill:#2f3f76;fill-opacity:1;stroke:none">
      <path
         d="m 139.78961,262.32162 c -16.6784,-8.20199 -17.90484,-14.389 -17.2124,-28.58401 0.67963,-13.92099 12.00348,-21.903 27.17694,-26.729 15.17352,-4.82599 32.83746,-0.928 40.76404,7.054 8.11066,8.166 7.47406,16.705 -0.45252,22.64401 -5.35095,4.00999 -11.55005,0 -11.32379,-3.71201 0.31238,-5.114 13.13556,-3.89799 3.62348,-12.25 -6.44001,-5.656 -19.70282,-5.01199 -26.72352,1.485 -7.02075,6.49601 -10.83105,18.213 -1.35833,24.501 27.40222,18.19001 85.1524,-36.752 154.90503,-37.12299 33.06738,-0.177 82.91479,37.71899 107.80005,41.577 58.656,9.09501 90.81475,-23.75802 92.39965,-23.01601 1.58527,0.743 -36.46124,36.00903 -94.21142,28.95602 -27.91333,-3.40899 -79.25098,-38.69802 -108.70587,-37.86502 -65.67579,1.85601 -128.18152,61.99503 -166.68134,43.06201 z"
         id="svg_5"
         style="fill:#2f3f76;fill-opacity:1;fill-rule:evenodd;stroke:none;stroke-width:1px"
         inkscape:connector-curvature="0" />
    </g>
  </g>
</svg>
