<?xml version="1.0"?><svg width="640" height="480" xmlns="http://www.w3.org/2000/svg">
 <title>black wave</title>
 <metadata id="metadata7">image/svg+xmlFlourish Eleven2006 SeptemberNathan EadyGalion Public LibraryOpen Clip Art Library</metadata>
 <g>
  <title>Layer 1</title>
  <text fill="#000000" stroke="#000000" stroke-width="0" x="456" y="188" id="svg_1" font-size="24" font-family="Arial" text-anchor="middle" xml:space="preserve" transform="matrix(25.553451492522527,0,0,3.6363637447357178,-11305.873883251561,-429.727290391922) "/>
  <text fill="#000000" stroke="#000000" stroke-width="0" stroke-dasharray="null" stroke-linejoin="null" stroke-linecap="null" x="378" y="258" id="svg_2" font-size="24" font-family="Arial" text-anchor="middle" xml:space="preserve" transform="matrix(14.285714149475098,0,0,1,-5114.999947547913,0) "/>
  <g transform="rotate(-0.46201 316.429 241.719)" externalResourcesRequired="false" id="layer1">
   <path fill="#000000" fill-rule="evenodd" stroke="#000000" stroke-width="1px" d="m139.789612,262.321625c-16.678406,-8.201996 -17.904846,-14.389008 -17.212402,-28.584015c0.679626,-13.92099 12.003479,-21.903 27.176941,-26.729004c15.173523,-4.825989 32.837463,-0.927994 40.764038,7.054001c8.110657,8.166 7.47406,16.705002 -0.452515,22.644012c-5.350952,4.009995 -11.550049,0 -11.323792,-3.712006c0.312378,-5.113998 13.135559,-3.897995 3.623474,-12.25c-6.440002,-5.656006 -19.70282,-5.011993 -26.723511,1.485001c-7.020752,6.496002 -10.831055,18.212997 -1.358337,24.500992c27.402222,18.190018 85.152405,-36.751999 154.905029,-37.122986c33.067383,-0.177002 82.914795,37.718994 107.800049,41.576996c58.656006,9.095016 90.814758,-23.758011 92.399658,-23.016006c1.585266,0.742996 -36.461243,36.009033 -94.211426,28.956024c-27.91333,-3.408997 -79.250977,-38.698029 -108.705872,-37.865021c-65.675781,1.856003 -128.181519,61.995026 -166.681335,43.062012z" id="svg_5"/>
  </g>
 </g>
</svg>