<?xml version="1.0" encoding="UTF-8" standalone="no"?>
<!-- Created with Inkscape (http://www.inkscape.org/) -->

<svg
   xmlns:dc="http://purl.org/dc/elements/1.1/"
   xmlns:cc="http://creativecommons.org/ns#"
   xmlns:rdf="http://www.w3.org/1999/02/22-rdf-syntax-ns#"
   xmlns:svg="http://www.w3.org/2000/svg"
   xmlns="http://www.w3.org/2000/svg"
   xmlns:sodipodi="http://sodipodi.sourceforge.net/DTD/sodipodi-0.dtd"
   xmlns:inkscape="http://www.inkscape.org/namespaces/inkscape"
   width="29.88439"
   height="63.938103"
   id="svg9753"
   version="1.1"
   inkscape:version="0.48.4 r9939"
   sodipodi:docname="lighthouse2.svg">
  <defs
     id="defs9755">
    <inkscape:path-effect
       effect="spiro"
       id="path-effect9767"
       is_visible="true" />
  </defs>
  <sodipodi:namedview
     id="base"
     pagecolor="#ffffff"
     bordercolor="#666666"
     borderopacity="1.0"
     inkscape:pageopacity="0.0"
     inkscape:pageshadow="2"
     inkscape:zoom="12.705425"
     inkscape:cx="6.3756466"
     inkscape:cy="39.717444"
     inkscape:current-layer="layer1"
     showgrid="true"
     inkscape:grid-bbox="true"
     inkscape:document-units="px"
     inkscape:window-width="1920"
     inkscape:window-height="1029"
     inkscape:window-x="0"
     inkscape:window-y="24"
     inkscape:window-maximized="1"
     showborder="true"
     fit-margin-top="3"
     fit-margin-left="5"
     fit-margin-right="5"
     fit-margin-bottom="3" />
  <metadata
     id="metadata9758">
    <rdf:RDF>
      <cc:Work
         rdf:about="">
        <dc:format>image/svg+xml</dc:format>
        <dc:type
           rdf:resource="http://purl.org/dc/dcmitype/StillImage" />
        <dc:title></dc:title>
      </cc:Work>
    </rdf:RDF>
  </metadata>
  <g
     id="layer1"
     inkscape:label="Layer 1"
     inkscape:groupmode="layer"
     transform="translate(-9.3082472,8.4590064)">
    <g
       id="g3880"
       transform="matrix(1.5825975,0,0,1.2899166,-13.731899,-6.3458241)">
      <path
         sodipodi:nodetypes="sssss"
         inkscape:connector-curvature="0"
         id="path9777"
         d="m 29.511911,45.209166 c 0,0.865146 -2.455718,-0.743155 -5.51205,-0.743155 -2.942942,0 -5.512051,1.608301 -5.512051,0.743155 0,-0.865145 -0.04563,-36.2059022 5.70322,-36.1715319 5.454297,0.032609 5.320881,35.3063869 5.320881,36.1715319 z"
         style="fill:#3a3042;fill-opacity:1;stroke:none" />
      <rect
         y="9.0523634"
         x="20.645723"
         height="7.851409"
         width="6.7085528"
         id="rect10292"
         style="fill:#3a3042;fill-opacity:1;stroke:#3a3042;stroke-width:0.36300001;stroke-linejoin:miter;stroke-miterlimit:4;stroke-opacity:1;stroke-dasharray:none;stroke-dashoffset:0" />
      <path
         transform="matrix(0.85714044,0,0,0.68513797,72.857005,-18.752868)"
         d="m -52,45 c 0,0.473387 -2.238576,0.857143 -5,0.857143 -2.761424,0 -5,-0.383756 -5,-0.857143 0,-0.473387 2.238576,-0.857143 5,-0.857143 2.761424,0 5,0.383756 5,0.857143 z"
         sodipodi:ry="0.85714287"
         sodipodi:rx="5"
         sodipodi:cy="45"
         sodipodi:cx="-57"
         id="path10294"
         style="fill:#3a3042;fill-opacity:1;stroke:#3a3042;stroke-width:0.5;stroke-linejoin:miter;stroke-miterlimit:4;stroke-opacity:1;stroke-dasharray:none;stroke-dashoffset:0"
         sodipodi:type="arc" />
      <path
         inkscape:connector-curvature="0"
         id="path10324"
         d="m 27.962165,8.3439401 c 0,0.3138189 -1.773921,0.5682193 -3.962165,0.5682193 -2.188244,0 -3.962166,-0.2544004 -3.962166,-0.5682193 0,-0.3138188 1.773922,-0.5682192 3.962166,-0.5682192 2.188244,0 3.962165,0.2544004 3.962165,0.5682192 z"
         style="fill:#3a3042;fill-opacity:1;stroke:#3a3042;stroke-width:0.47472921;stroke-linejoin:miter;stroke-miterlimit:4;stroke-opacity:1;stroke-dashoffset:0" />
      <rect
         y="3.5852127"
         x="20.982143"
         height="4.1785712"
         width="6.0357141"
         id="rect10330"
         style="fill:none;stroke:#3a3042;stroke-width:0.5;stroke-linejoin:miter;stroke-miterlimit:4;stroke-opacity:1;stroke-dasharray:none;stroke-dashoffset:0" />
      <path
         inkscape:connector-curvature="0"
         id="path10357"
         d="m 24.055943,3.7946124 c 0,1.3365903 0,2.6731809 0,4.0097712"
         style="fill:none;stroke:#3a3042;stroke-width:0.1144921;stroke-linecap:butt;stroke-linejoin:miter;stroke-miterlimit:4;stroke-opacity:1;stroke-dasharray:none" />
      <path
         inkscape:connector-curvature="0"
         id="path10357-4"
         d="m 25.61306,3.6881473 c 0,1.3365903 0,2.6731809 0,4.0097712"
         style="fill:none;stroke:#3a3042;stroke-width:0.1144921;stroke-linecap:butt;stroke-linejoin:miter;stroke-miterlimit:4;stroke-opacity:1;stroke-dasharray:none" />
      <path
         inkscape:connector-curvature="0"
         id="path10357-3"
         d="m 22.498827,3.7417187 c 0,1.3365903 0,2.6731809 0,4.0097712"
         style="fill:none;stroke:#3a3042;stroke-width:0.114;stroke-linecap:butt;stroke-linejoin:miter;stroke-miterlimit:4;stroke-opacity:1;stroke-dasharray:none" />
      <path
         transform="matrix(0.93930878,0,0,1.0040186,1.4174866,1.5065069)"
         d="m 27.75394,1.8107748 c 0,0.2231567 -1.662058,0.404061 -3.71231,0.404061 -2.050253,0 -3.712311,-0.1809043 -3.712311,-0.404061 0,-0.2231567 1.662058,-0.404061 3.712311,-0.404061 2.050252,0 3.71231,0.1809043 3.71231,0.404061 z"
         sodipodi:ry="0.40406102"
         sodipodi:rx="3.7123106"
         sodipodi:cy="1.8107748"
         sodipodi:cx="24.04163"
         id="path10464"
         style="fill:#3a3042;fill-opacity:1;stroke:#3a3042;stroke-width:0.114;stroke-linejoin:miter;stroke-miterlimit:4;stroke-opacity:1;stroke-dasharray:none;stroke-dashoffset:0"
         sodipodi:type="arc" />
      <path
         transform="matrix(1.0063369,0,0,0.38971915,43.188066,3.3452443)"
         inkscape:transform-center-y="-0.37580057"
         inkscape:transform-center-x="-0.0042161176"
         d="m -15.714285,-0.28571421 -3.352954,0.007257 -3.352953,0.007257 1.670192,-2.90737094 1.670192,-2.907371 1.682761,2.9001141 z"
         inkscape:randomized="0"
         inkscape:rounded="0"
         inkscape:flatsided="false"
         sodipodi:arg2="1.568632"
         sodipodi:arg1="0.52143444"
         sodipodi:r2="1.9358329"
         sodipodi:r1="3.8716657"
         sodipodi:cy="-2.2142856"
         sodipodi:cx="-19.071428"
         sodipodi:sides="3"
         id="path10466"
         style="fill:#3a3042;fill-opacity:1;stroke:#3a3042;stroke-width:0.114;stroke-linejoin:miter;stroke-miterlimit:4;stroke-opacity:0.94117647;stroke-dasharray:none;stroke-dashoffset:0"
         sodipodi:type="star" />
      <rect
         y="22.462362"
         x="23.726109"
         height="2.2142856"
         width="0.54778361"
         id="rect10475-9"
         style="color:#000000;fill:#ffffff;fill-opacity:0;fill-rule:nonzero;stroke:none;marker:none;visibility:visible;display:inline;overflow:visible;enable-background:accumulate" />
      <path
         inkscape:connector-curvature="0"
         id="path10357-3-2"
         d="m 24,0.67431911 c 0,0.17923778 0,0.35847549 0,0.53771339"
         style="fill:none;stroke:#3a3042;stroke-width:0.37620622;stroke-linecap:butt;stroke-linejoin:miter;stroke-miterlimit:4;stroke-opacity:1;stroke-dasharray:none" />
      <rect
         y="29.069504"
         x="23.726109"
         height="2.2142856"
         width="0.54778361"
         id="rect10475-9-1"
         style="color:#000000;fill:#ffffff;fill-opacity:0;fill-rule:nonzero;stroke:none;marker:none;visibility:visible;display:inline;overflow:visible;enable-background:accumulate" />
      <rect
         y="44.166119"
         x="17.7178"
         height="1.4234698"
         width="12.564401"
         id="rect10881"
         style="color:#000000;fill:#3a3042;fill-opacity:1;fill-rule:nonzero;stroke:none;stroke-width:0.114;marker:none;visibility:visible;display:inline;overflow:visible;enable-background:accumulate" />
      <path
         transform="translate(12.7178,-4.513784)"
         inkscape:connector-curvature="0"
         id="path2997"
         d="m 5.0155678,49.616564 c 0,-0.482334 0.012367,-0.500885 0.3339235,-0.500885 l 0.3339236,0 9.172e-4,-2.031369 c 0.00195,-4.323575 0.4276262,-13.259014 0.839133,-17.614468 0.3245825,-3.435431 0.8337883,-7.237973 1.1569663,-8.639751 0.061815,-0.268122 0.1136152,-1.224866 0.1151117,-2.126101 l 0.00272,-1.638609 -0.3525844,-0.09136 C 7.004803,16.859775 6.77747,16.545858 7.0191091,16.384981 c 0.091829,-0.06114 0.3047053,-0.141106 0.4730584,-0.177707 l 0.3060966,-0.06655 0,-1.368159 c 0,-0.995327 0.037915,-1.380931 0.1391349,-1.415026 0.076524,-0.02578 -0.043861,-0.0814 -0.2675228,-0.123611 -0.6822628,-0.128757 -0.6636465,-0.644678 0.02875,-0.796754 l 0.3302111,-0.07253 -0.01347,-2.29992 -0.01347,-2.2999205 1.5399747,-1.0288726 c 1.001904,-0.6693755 1.552402,-1.1069013 1.575542,-1.2522064 0.04647,-0.2918216 0.354009,-0.2905075 0.354009,0.00151 0,0.1663503 0.424341,0.5051642 1.63093,1.3022122 0.897011,0.5925473 1.573206,1.0965997 1.502656,1.1201164 -0.09106,0.030352 -0.128274,0.6808694 -0.128274,2.2420199 l 0,2.199263 0.433714,0.129944 c 0.238542,0.07147 0.461842,0.203248 0.496223,0.292842 0.07309,0.190478 -0.317743,0.498819 -0.648607,0.511702 -0.124121,0.0048 -0.163065,0.03405 -0.08654,0.06493 0.100823,0.04068 0.139135,0.436705 0.139135,1.438215 0,1.250198 0.01888,1.382073 0.197849,1.382073 0.238783,0 0.692614,0.301737 0.692614,0.460497 0,0.06267 -0.200354,0.192652 -0.445232,0.288843 l -0.445231,0.174891 0,1.257506 c 0,0.790789 0.08157,1.683043 0.219784,2.404062 0.662209,3.454577 1.06733,7.362103 1.446401,13.951029 0.177798,3.090429 0.442651,11.334811 0.447739,13.937238 8.91e-4,0.430144 0.02617,0.473059 0.279195,0.473059 0.255596,0 0.27827,0.04081 0.27827,0.500885 l 0,0.500885 -6.23324,0 -6.2332402,0 0,-0.500885 z m 9.1272442,-39.458635 0,-1.8922331 -2.83835,0 -2.8383507,0 0,1.8922331 0,1.892234 2.8383507,0 2.83835,0 0,-1.892234 z"
         style="opacity:0;color:#000000;fill:#008000;fill-opacity:0;fill-rule:nonzero;stroke:none;stroke-width:0.114;marker:none;visibility:visible;display:inline;overflow:visible;enable-background:accumulate" />
      <path
         transform="translate(12.7178,-4.513784)"
         inkscape:connector-curvature="0"
         id="path2999"
         d="m 5.0155678,49.616564 c 0,-0.482334 0.012367,-0.500885 0.3339235,-0.500885 l 0.3339236,0 9.172e-4,-2.031369 c 0.00195,-4.323575 0.4276262,-13.259014 0.839133,-17.614468 0.3245825,-3.435431 0.8337883,-7.237973 1.1569663,-8.639751 0.061815,-0.268122 0.1136152,-1.224866 0.1151117,-2.126101 l 0.00272,-1.638609 -0.3525844,-0.09136 C 7.004803,16.859775 6.77747,16.545858 7.0191091,16.384981 c 0.091829,-0.06114 0.3047053,-0.141106 0.4730584,-0.177707 l 0.3060966,-0.06655 0,-1.368159 c 0,-0.995327 0.037915,-1.380931 0.1391349,-1.415026 0.076524,-0.02578 -0.043861,-0.0814 -0.2675228,-0.123611 -0.6822628,-0.128757 -0.6636465,-0.644678 0.02875,-0.796754 l 0.3302111,-0.07253 -0.01347,-2.29992 -0.01347,-2.2999205 1.5399747,-1.0288726 c 1.001904,-0.6693755 1.552402,-1.1069013 1.575542,-1.2522064 0.04647,-0.2918216 0.354009,-0.2905075 0.354009,0.00151 0,0.1663503 0.424341,0.5051642 1.63093,1.3022122 0.897011,0.5925473 1.573206,1.0965997 1.502656,1.1201164 -0.09106,0.030352 -0.128274,0.6808694 -0.128274,2.2420199 l 0,2.199263 0.433714,0.129944 c 0.238542,0.07147 0.461842,0.203248 0.496223,0.292842 0.07309,0.190478 -0.317743,0.498819 -0.648607,0.511702 -0.124121,0.0048 -0.163065,0.03405 -0.08654,0.06493 0.100823,0.04068 0.139135,0.436705 0.139135,1.438215 0,1.250198 0.01888,1.382073 0.197849,1.382073 0.238783,0 0.692614,0.301737 0.692614,0.460497 0,0.06267 -0.200354,0.192652 -0.445232,0.288843 l -0.445231,0.174891 0,1.257506 c 0,0.790789 0.08157,1.683043 0.219784,2.404062 0.662209,3.454577 1.06733,7.362103 1.446401,13.951029 0.177798,3.090429 0.442651,11.334811 0.447739,13.937238 8.91e-4,0.430144 0.02617,0.473059 0.279195,0.473059 0.255596,0 0.27827,0.04081 0.27827,0.500885 l 0,0.500885 -6.23324,0 -6.2332402,0 0,-0.500885 z m 9.1272442,-39.458635 0,-1.8922331 -2.83835,0 -2.8383507,0 0,1.8922331 0,1.892234 2.8383507,0 2.83835,0 0,-1.892234 z"
         style="opacity:0;color:#000000;fill:#008000;fill-opacity:0;fill-rule:nonzero;stroke:none;stroke-width:0.114;marker:none;visibility:visible;display:inline;overflow:visible;enable-background:accumulate" />
      <path
         transform="translate(12.7178,-4.513784)"
         inkscape:connector-curvature="0"
         id="path3001"
         d="m 13.029733,10.157929 0,-1.7809253 0.500886,0 0.500885,0 0,1.7809253 0,1.780926 -0.500885,0 -0.500886,0 0,-1.780926 z"
         style="opacity:0;color:#000000;fill:#008000;fill-opacity:0;fill-rule:nonzero;stroke:none;stroke-width:0.114;marker:none;visibility:visible;display:inline;overflow:visible;enable-background:accumulate" />
      <path
         transform="translate(12.7178,-4.513784)"
         inkscape:connector-curvature="0"
         id="path3771"
         d="m 5.0489601,49.623957 c 0,-0.455611 0.023496,-0.496195 0.3060966,-0.528712 l 0.3060966,-0.03522 0.072662,-4.007083 C 5.9160997,35.000547 6.6581498,25.73974 7.6647876,20.954349 7.7670116,20.468394 7.8316565,19.561875 7.8316565,18.61434 l 0,-1.546743 -0.4337864,-0.116806 C 6.6840333,16.758574 6.7251734,16.362023 7.4744993,16.212158 l 0.3451268,-0.06902 0.033842,-1.426148 0.033842,-1.426148 -0.3087238,-0.06154 C 6.9821237,13.110399 7.0864629,12.578965 7.7342018,12.436698 L 8.0665962,12.363692 8.0326072,10.064251 7.9986183,7.7648105 9.5810216,6.7073859 c 1.0145654,-0.677973 1.5837434,-1.1273236 1.5861374,-1.2522134 0.0051,-0.2635977 0.226349,-0.2498495 0.226349,0.014062 0,0.1456795 0.479761,0.524438 1.586137,1.2522134 l 1.586137,1.0433625 -0.03399,2.2994406 -0.03399,2.299441 0.332394,0.07301 c 0.647739,0.142267 0.752078,0.673701 0.155615,0.792598 l -0.308723,0.06154 0.03384,1.426148 0.03384,1.426148 0.345127,0.06902 c 0.749326,0.149865 0.790466,0.546416 0.07663,0.738633 l -0.433786,0.116806 0,1.052407 c 0,0.654212 0.102867,1.58965 0.271873,2.472309 1.055704,5.513575 1.837132,16.377006 1.84157,25.601535 l 0.0014,2.921831 0.333923,0 c 0.321556,0 0.333924,0.01855 0.333924,0.500885 l 0,0.500885 -6.23324,0 -6.2332399,0 0,-0.493492 z M 9.72389,10.157929 l 0,-1.8922331 -0.6121932,0 -0.6121932,0 0,1.8922331 0,1.892234 0.6121932,0 0.6121932,0 0,-1.892234 z m 1.583257,0.02783 0.02495,-1.8644062 0.0334,1.8644062 0.0334,1.864407 0.72081,0 0.72081,0 0,-1.892234 0,-1.8922331 -1.502656,0 -1.5026561,0 0,1.8922331 0,1.892234 0.7235011,0 0.723501,0 0.02495,-1.864407 z m 2.757749,-0.02783 0,-1.8922331 -0.556539,0 -0.556539,0 0,1.8922331 0,1.892234 0.556539,0 0.556539,0 0,-1.892234 z"
         style="opacity:0;color:#000000;fill:#008000;fill-opacity:0;fill-rule:nonzero;stroke:none;stroke-width:0.114;marker:none;visibility:visible;display:inline;overflow:visible;enable-background:accumulate" />
    </g>
    <rect
       style="opacity:0;color:#000000;fill:#008000;fill-opacity:0;fill-rule:nonzero;stroke:none;stroke-width:0.114;marker:none;visibility:visible;display:inline;overflow:visible;enable-background:accumulate"
       id="rect3773"
       width="24.599035"
       height="24.599035"
       x="-54.095619"
       y="10.524573"
       transform="translate(12.7178,-4.513784)" />
    <rect
       style="opacity:0;color:#000000;fill:#008077;fill-opacity:0.05882353;fill-rule:nonzero;stroke:none;stroke-width:0.114;marker:none;visibility:visible;display:inline;overflow:visible;enable-background:accumulate"
       id="rect3775"
       width="12.911711"
       height="8.7933207"
       x="-64.892479"
       y="13.752501"
       transform="translate(12.7178,-4.513784)" />
  </g>
</svg>
